<svg xmlns="http://www.w3.org/2000/svg" viewBox="0 0 48 48">
  <path fill="#00E676" d="M24 4C12.95 4 4 12.95 4 24c0 3.6 1.0 7.0 2.7 9.9L4 44l10.4-2.7C17.1 43.0 20.5 44 24 44c11.05 0 20-8.95 20-20S35.05 4 24 4z"/>
  <path fill="#fff" d="M35.2 28.9c-.5-.25-2.9-1.43-3.35-1.6-.45-.16-.77-.24-1.1.25-.32.5-1.25 1.6-1.53 1.92-.28.33-.57.37-1.06.12-.5-.25-2.1-.77-4-2.46-1.48-1.32-2.48-2.95-2.77-3.44-.28-.5-.03-.76.22-1.01.22-.22.5-.57.74-.86.25-.28.33-.5.5-.83.16-.33.08-.62-.04-.87-.12-.25-1.1-2.65-1.5-3.62-.4-.95-.8-.82-1.1-.84-.28-.01-.6-.02-.92-.02-.33 0-.87.12-1.32.6-.45.5-1.73 1.7-1.73 4.13s1.77 4.79 2.02 5.12c.25.33 3.48 5.32 8.44 7.46 1.18.51 2.1.81 2.82 1.04 1.18.38 2.26.33 3.11.2.95-.14 2.92-1.2 3.33-2.35.41-1.15.41-2.14.29-2.35-.12-.2-.45-.33-.95-.57z"/>
</svg>
